<svg width="20" height="20" viewBox="0 0 20 20" fill="none" xmlns="http://www.w3.org/2000/svg">
<path d="M16.6667 1.66666H3.33341C2.41545 1.66666 1.66675 2.41535 1.66675 3.33332V16.6667C1.66675 17.5846 2.41545 18.3333 3.33341 18.3333H16.6667C17.5847 18.3333 18.3334 17.5846 18.3334 16.6667V3.33332C18.3334 2.41535 17.5847 1.66666 16.6667 1.66666ZM6.99878 12.5846H5.1661C5.00008 12.5846 4.91545 12.4154 5.00008 12.2493L6.9174 8.74999C6.9174 8.66535 6.9174 8.58397 6.9174 8.58397L5.6674 6.41601C5.58276 6.24999 5.6674 6.08397 5.83341 6.08397H7.6661C7.75073 6.08397 7.83211 6.08397 7.83211 6.16535L9.25138 8.58397C9.25138 8.66535 9.25138 8.74999 9.25138 8.74999L7.16805 12.5C7.16805 12.5846 7.08342 12.5846 6.99878 12.5846ZM15.0001 4.49869L11.3347 11.25C11.3347 11.3346 11.3347 11.416 11.3347 11.416L13.7501 15.5827C13.8347 15.7487 13.7501 15.918 13.5841 15.918H11.6667C11.5821 15.918 11.5007 15.918 11.5007 15.8333L9.00073 11.5006C9.00073 11.416 9.00073 11.3346 9.00073 11.3346L12.8321 4.41731C12.8321 4.16666 12.9167 4.16666 13.0014 4.16666H14.8341C14.9154 4.16666 15.0847 4.33267 15.0001 4.49869Z" fill="white"/>
</svg>
