<svg width="20" height="20" viewBox="0 0 20 20" fill="none" xmlns="http://www.w3.org/2000/svg">
<g clip-path="url(#clip0_1_841)">
<path d="M16.3089 8.82143L9.53244 15.5979C8.23018 16.9001 6.12065 16.9001 4.81839 15.5979C3.51614 14.2956 3.51614 12.1861 4.81839 10.8838L12.1841 3.51813C12.9973 2.70495 14.3172 2.70495 15.1304 3.51813C15.9435 4.3313 15.9435 5.65123 15.1304 6.46441L8.94318 12.6516C8.61909 12.9757 8.08876 12.9757 7.76467 12.6516C7.44058 12.3275 7.44058 11.7972 7.76467 11.4731L13.3626 5.87515L12.4787 4.99127L6.88079 10.5892C6.06762 11.4024 6.06762 12.7223 6.88079 13.5355C7.69396 14.3486 9.01389 14.3486 9.82707 13.5355L16.0142 7.34829C17.3165 6.04603 17.3165 3.9365 16.0142 2.63424C14.712 1.33199 12.6025 1.33199 11.3002 2.63424L3.93451 9.99994C2.14317 11.7913 2.14317 14.6904 3.93451 16.4818C5.72585 18.2731 8.62499 18.2731 10.4163 16.4818L17.1928 9.70531L16.3089 8.82143Z" fill="#FE5B0E"/>
</g>
<defs>
<clipPath id="clip0_1_841">
<rect width="20" height="20" fill="white"/>
</clipPath>
</defs>
</svg>
