<svg width="18" height="15" viewBox="0 0 18 15" fill="none" xmlns="http://www.w3.org/2000/svg">
<path d="M5.66675 13.6666V0.333313H14.0001V4.49998H15.2501C15.8288 4.49998 16.3207 4.70253 16.7258 5.10763C17.1309 5.51271 17.3334 6.0046 17.3334 6.58331V13.6666H5.66675ZM2.85425 14.5C3.43758 14.5 3.948 14.2812 4.3855 13.8437C4.823 13.4062 5.04175 12.8958 5.04175 12.3125V5.85415C5.04175 5.27081 4.823 4.7604 4.3855 4.3229C3.948 3.8854 3.43758 3.66665 2.85425 3.66665C2.27091 3.66665 1.7605 3.8854 1.323 4.3229C0.885498 4.7604 0.666748 5.27081 0.666748 5.85415V12.3125C0.666748 12.8958 0.885498 13.4062 1.323 13.8437C1.7605 14.2812 2.27091 14.5 2.85425 14.5ZM6.91675 4.49998H12.7501V1.58331H6.91675V4.49998ZM12.1251 8.66665C12.3612 8.66665 12.5591 8.58679 12.7188 8.42706C12.8786 8.26734 12.9584 8.06942 12.9584 7.83331C12.9584 7.5972 12.8786 7.39929 12.7188 7.23956C12.5591 7.07984 12.3612 6.99998 12.1251 6.99998C11.889 6.99998 11.6911 7.07984 11.5313 7.23956C11.3716 7.39929 11.2917 7.5972 11.2917 7.83331C11.2917 8.06942 11.3716 8.26734 11.5313 8.42706C11.6911 8.58679 11.889 8.66665 12.1251 8.66665ZM14.6251 8.66665C14.8612 8.66665 15.0591 8.58679 15.2188 8.42706C15.3786 8.26734 15.4584 8.06942 15.4584 7.83331C15.4584 7.5972 15.3786 7.39929 15.2188 7.23956C15.0591 7.07984 14.8612 6.99998 14.6251 6.99998C14.389 6.99998 14.1911 7.07984 14.0313 7.23956C13.8716 7.39929 13.7917 7.5972 13.7917 7.83331C13.7917 8.06942 13.8716 8.26734 14.0313 8.42706C14.1911 8.58679 14.389 8.66665 14.6251 8.66665ZM12.1251 11.1666C12.3612 11.1666 12.5591 11.0868 12.7188 10.9271C12.8786 10.7673 12.9584 10.5694 12.9584 10.3333C12.9584 10.0972 12.8786 9.89929 12.7188 9.73956C12.5591 9.57984 12.3612 9.49998 12.1251 9.49998C11.889 9.49998 11.6911 9.57984 11.5313 9.73956C11.3716 9.89929 11.2917 10.0972 11.2917 10.3333C11.2917 10.5694 11.3716 10.7673 11.5313 10.9271C11.6911 11.0868 11.889 11.1666 12.1251 11.1666ZM14.6251 11.1666C14.8612 11.1666 15.0591 11.0868 15.2188 10.9271C15.3786 10.7673 15.4584 10.5694 15.4584 10.3333C15.4584 10.0972 15.3786 9.89929 15.2188 9.73956C15.0591 9.57984 14.8612 9.49998 14.6251 9.49998C14.389 9.49998 14.1911 9.57984 14.0313 9.73956C13.8716 9.89929 13.7917 10.0972 13.7917 10.3333C13.7917 10.5694 13.8716 10.7673 14.0313 10.9271C14.1911 11.0868 14.389 11.1666 14.6251 11.1666ZM7.54175 11.1666H10.4584V6.99998H7.54175V11.1666Z" fill="#FE5B0E"/>
</svg>
