<svg width="12" height="18" viewBox="0 0 12 18" fill="none" xmlns="http://www.w3.org/2000/svg">
<path d="M6 14.375C4.09722 12.9445 2.68403 11.575 1.76042 10.2667C0.836806 8.95837 0.375 7.67675 0.375 6.42183C0.375 5.47396 0.545139 4.64238 0.885417 3.9271C1.22569 3.21183 1.66667 2.61113 2.20833 2.12502C2.75 1.63891 3.35403 1.27433 4.02042 1.03127C4.68681 0.788215 5.34653 0.666687 5.99958 0.666687C6.65264 0.666687 7.3125 0.788215 7.97917 1.03127C8.64583 1.27433 9.25 1.63891 9.79167 2.12502C10.3333 2.61113 10.7743 3.21205 11.1146 3.92779C11.4549 4.64353 11.625 5.47633 11.625 6.42619C11.625 7.68374 11.1632 8.9653 10.2396 10.2709C9.31597 11.5764 7.90278 12.9445 6 14.375ZM6.00185 7.75002C6.4034 7.75002 6.74653 7.60704 7.03125 7.32108C7.31597 7.03514 7.45833 6.69139 7.45833 6.28983C7.45833 5.88829 7.31535 5.54516 7.0294 5.26044C6.74345 4.97571 6.3997 4.83335 5.99815 4.83335C5.5966 4.83335 5.25347 4.97633 4.96875 5.26229C4.68403 5.54823 4.54167 5.89198 4.54167 6.29354C4.54167 6.69508 4.68465 7.03821 4.9706 7.32294C5.25655 7.60766 5.6003 7.75002 6.00185 7.75002ZM0.375 17.3334V16.0834H11.625V17.3334H0.375Z" fill="#FE5B0E"/>
</svg>
