<svg width="12" height="12" viewBox="0 0 12 12" fill="none" xmlns="http://www.w3.org/2000/svg">
<path d="M11.25 12C9.89444 12 8.54722 11.6667 7.20833 11C5.86944 10.3333 4.66667 9.46667 3.6 8.4C2.53333 7.33333 1.66667 6.13056 1 4.79167C0.333333 3.45278 0 2.10556 0 0.75C0 0.538889 0.0722222 0.361111 0.216667 0.216667C0.361111 0.0722222 0.538889 0 0.75 0H3.08333C3.23889 0 3.375 0.0527778 3.49167 0.158333C3.60833 0.263889 3.68333 0.405556 3.71667 0.583333L4.16667 2.68333C4.18889 2.83889 4.18611 2.98056 4.15833 3.10833C4.13056 3.23611 4.07222 3.34444 3.98333 3.43333L2.31667 5.11667C2.93889 6.15 3.63611 7.05 4.40833 7.81667C5.18056 8.58333 6.05556 9.23333 7.03333 9.76667L8.61667 8.13333C8.72778 8.01111 8.85556 7.925 9 7.875C9.14444 7.825 9.28889 7.81667 9.43333 7.85L11.4167 8.28333C11.5833 8.31667 11.7222 8.4 11.8333 8.53333C11.9444 8.66667 12 8.82222 12 9V11.25C12 11.4611 11.9278 11.6389 11.7833 11.7833C11.6389 11.9278 11.4611 12 11.25 12Z" fill="currentColor"/>
</svg>
